<?xml version="1.0" encoding="UTF-8"?>
<svg width="570px" height="296px" viewBox="0 0 570 296" version="1.1" xmlns="http://www.w3.org/2000/svg" xmlns:xlink="http://www.w3.org/1999/xlink">
    <!-- Generator: Sketch 63.1 (92452) - https://sketch.com -->
    <title>Hold_1</title>
    <desc>Created with Sketch.</desc>
    <g id="UpdatedWireframe" stroke="none" stroke-width="1" fill="none" fill-rule="evenodd">
        <path d="M525.986067,36.3241564 C564.65334,68.5262106 581.28697,117.964486 561.83889,157.627686 C542.512352,197.344774 487.174277,227.193452 441.688797,254.068019 L436.276148,257.276089 C393.335688,282.788944 358.953502,304.260551 325.981139,292.867351 C291.564755,281.092771 258.678125,233.657593 202.698161,233.10524 C146.648024,232.646224 67.4343808,279.163368 34.355941,276.817804 C1.32887065,274.619463 14.5585453,223.612302 12.5525332,179.290517 C10.3548077,135.008181 -7.07860446,97.4112206 3.23973991,65.149411 C13.6282563,32.7942652 51.4552743,5.7598308 95.5775222,18.8509272 C139.648401,31.7948 189.701254,84.8497645 235.783641,84.1250496 C281.744487,83.3464472 323.805038,28.6948294 375.150687,8.89860528 C426.496335,-10.8976189 487.318793,4.12210222 525.986067,36.3241564 Z" id="Hold_1" fill="#261111" fill-rule="nonzero"></path>
    </g>
</svg>