<?xml version="1.0" encoding="UTF-8"?>
<svg width="688px" height="400px" viewBox="0 0 688 400" version="1.1" xmlns="http://www.w3.org/2000/svg" xmlns:xlink="http://www.w3.org/1999/xlink">
    <!-- Generator: Sketch 63.1 (92452) - https://sketch.com -->
    <title>Hold_3</title>
    <desc>Created with Sketch.</desc>
    <g id="UpdatedWireframe" stroke="none" stroke-width="1" fill="none" fill-rule="evenodd">
        <path d="M567.108887,92.4178158 L576.095285,117.112292 L578.213203,122.861891 C588.508688,150.613293 598.866615,175.248692 619.511017,207.355258 L620.999112,209.655079 L622.64564,212.167697 C649.861765,253.445782 692.469129,306.221823 687.619467,341.625219 C682.720319,377.389874 629.292604,395.253889 575.25961,399.149213 L573.622111,399.262982 C518.984783,403.02347 464.072573,392.507502 426.583384,365.094704 C389.043062,337.792365 369.076977,293.657865 304.632957,270.861269 C240.391285,248.018885 131.925162,246.358158 65.7810728,211.189802 C-0.311882488,175.910989 -24.3852342,106.995209 30.0436451,86.0754984 C84.4725244,65.1557881 217.101204,92.102809 288.031783,93.0607999 C359.113578,94.0834602 368.397192,68.941963 396.730906,43.3462922 C425.064619,17.7506214 472.348351,-8.47435056 505.077327,2.61145316 C534.634978,12.6230807 552.40524,52.8850432 565.871563,89.0728873 L567.108887,92.4178158 Z" id="Hold_3" fill="#5E3008" fill-rule="nonzero"></path>
    </g>
</svg>