<svg xmlns="http://www.w3.org/2000/svg" viewBox="0 0 129.24 188.77"><defs><style>.cls-1{fill:#261111;}</style></defs><g id="Layer_2" data-name="Layer 2"><g id="Layer_1-2" data-name="Layer 1"><circle class="cls-1" cx="67.32" cy="32.16" r="15.02"/><path class="cls-1" d="M128.91,135.73l-9.48-36a10,10,0,0,0-13.87-6.53l-17.49,8.08V67.08l33.78-54.89a8,8,0,0,0-13.63-8.38L79.85,49.91H60.77a9.87,9.87,0,0,0-3.13.51c-.36.11-27,12.14-27,12.14L14.66,38.64A8,8,0,0,0,1.34,47.51L21,77.09a8,8,0,0,0,10,2.85l19.88-9v39.58L22.75,174.75a10,10,0,1,0,18.32,8L65.3,127.45A10,10,0,0,0,76,128.93l27.15-12.55,6.44,24.44a10,10,0,0,0,9.66,7.46,9.77,9.77,0,0,0,2.55-.34A10,10,0,0,0,128.91,135.73Z"/></g></g></svg>