<svg xmlns="http://www.w3.org/2000/svg" viewBox="0 0 129.24 188.77">
  <defs>
    <style>
      .cls-1{fill:#261111}
    </style>
  </defs>
  <g id="Layer_2" data-name="Layer 2">
    <g id="Layer_1-2" data-name="Layer 1">
      <circle cx="67.32" cy="32.16" r="15.02" class="cls-1"/>
      <path d="M128.91 135.73l-9.48-36a10 10 0 00-13.87-6.53l-17.49 8.08v-34.2l33.78-54.89a8 8 0 00-13.63-8.38l-28.37 46.1H60.77a9.87 9.87 0 00-3.13.51c-.36.11-27 12.14-27 12.14L14.66 38.64a8 8 0 00-13.32 8.87L21 77.09a8 8 0 0010 2.85l19.88-9v39.58l-28.13 64.23a10 10 0 1018.32 8l24.23-55.3a10 10 0 0010.7 1.48l27.15-12.55 6.44 24.44a10 10 0 009.66 7.46 9.77 9.77 0 002.55-.34 10 10 0 007.11-12.21z" class="cls-1"/>
    </g>
  </g>
</svg>
